<svg xmlns="http://www.w3.org/2000/svg" xmlns:xlink="http://www.w3.org/1999/xlink" width="20" height="20" viewBox="0 0 504 504"><path fill="#fff" d="M252 45.471c67.266 0 75.233.257 101.8 1.469 24.562 1.121 37.9 5.224 46.778 8.674a78.052 78.052 0 0128.966 18.845 78.052 78.052 0 0118.845 28.966c3.45 8.877 7.554 22.216 8.674 46.778 1.212 26.565 1.469 34.532 1.469 101.8s-.257 75.233-1.469 101.8c-1.121 24.562-5.225 37.9-8.674 46.778a83.427 83.427 0 01-47.811 47.811c-8.877 3.45-22.216 7.554-46.778 8.674-26.56 1.212-34.527 1.469-101.8 1.469s-75.237-.257-101.8-1.469c-24.562-1.121-37.9-5.225-46.778-8.674a78.051 78.051 0 01-28.966-18.845 78.053 78.053 0 01-18.845-28.966c-3.45-8.877-7.554-22.216-8.674-46.778-1.212-26.564-1.469-34.532-1.469-101.8s.257-75.233 1.469-101.8c1.121-24.562 5.224-37.9 8.674-46.778a78.052 78.052 0 0118.847-28.967 78.053 78.053 0 0128.966-18.845c8.877-3.45 22.216-7.554 46.778-8.674 26.565-1.212 34.532-1.469 101.8-1.469l-.002.001zm.002-45.392c-68.418 0-77 .29-103.866 1.516-26.815 1.224-45.127 5.482-61.151 11.71a123.488 123.488 0 00-44.62 29.057A123.488 123.488 0 0013.3 86.982c-6.223 16.025-10.481 34.337-11.7 61.152C.369 175 .079 183.582.079 252s.29 77 1.521 103.866c1.224 26.815 5.482 45.127 11.71 61.151a123.489 123.489 0 0029.057 44.62 123.486 123.486 0 0044.62 29.057c16.025 6.228 34.337 10.486 61.151 11.71 26.87 1.226 35.449 1.516 103.866 1.516s77-.29 103.866-1.516c26.815-1.224 45.127-5.482 61.151-11.71a128.817 128.817 0 0073.677-73.677c6.228-16.025 10.486-34.337 11.71-61.151 1.226-26.87 1.516-35.449 1.516-103.866s-.29-77-1.516-103.866c-1.224-26.815-5.482-45.127-11.71-61.151a123.486 123.486 0 00-29.057-44.62A123.487 123.487 0 00417.018 13.3c-16.025-6.223-34.337-10.481-61.152-11.7C329 .369 320.418.079 252 .079h.002z"/><path fill="#fff" d="M252 122.635c-71.446 0-129.365 57.919-129.365 129.365 0 71.446 57.919 129.365 129.365 129.365 71.446 0 129.365-57.919 129.365-129.365 0-71.446-57.919-129.365-129.365-129.365zm0 213.338c-46.377 0-83.972-37.597-83.972-83.974s37.596-83.972 83.973-83.972 83.973 37.596 83.973 83.973-37.597 83.973-83.974 83.973z"/><circle cx="386.476" cy="117.524" r="30.23" fill="#fff"/></svg>