<svg xmlns="http://www.w3.org/2000/svg" viewBox="0 0 992.6 301.9">
    <path
        d="M149.1,96.4c22.9-10.7,23.7-30.3,23.7-44C172.8,23.9,152.9-.2,114-.2H0L15.7,24.5V83.8l16.8-9.1A21.51,21.51,0,0,0,43.7,55.9v-32h57.7c31.3,0,43.2,11,43.2,30.5C144.5,79.9,128,88,101,88H60.6a47.66,47.66,0,0,0-45.2,47.6v72.7H43.6V133.2a21.74,21.74,0,0,1,5.3-14.8A20.68,20.68,0,0,1,59,112a21.52,21.52,0,0,1,6.8-.8s43.5,0,45.2.2c21.6.8,43.8,7.7,43.8,34.9,0,23.2-14.8,38.1-44.2,38.1H64.8v24.1h47.1c46.1,0,70.9-28.2,70.9-61.6C182.8,111.2,162.8,102,149.1,96.4Z"
        transform="translate(0 0.3)" style="fill:#2d334d" />
    <polygon points="739.8 0.3 739.8 25.2 810.6 25.2 810.3 208.8 838.5 208.8 838.5 25.2 909 25.2 909 0.3 739.8 0.3"
        style="fill:#2d334d" />
    <path d="M339.3,139.4v69h28V142.2a61.52,61.52,0,0,1,9.4-32.6L445.9,0H412.8L346.4,112.2A56.3,56.3,0,0,0,339.3,139.4Z"
        transform="translate(0 0.3)" style="fill:#2d334d" />
    <polygon points="534.6 0.3 550.3 25.2 550.3 208.8 578.4 208.8 578.4 0.3 534.6 0.3" style="fill:#2d334d" />
    <rect x="601.3" y="183.7" width="82.7" height="25" style="fill:#2d334d" />
    <path d="M311,28.2A61.45,61.45,0,0,0,259.1-.3H234.2l17,26.5h8.1a35,35,0,0,1,29.5,16.1L326,100.8l15.3-25.4Z"
        transform="translate(0 0.3)" style="fill:#2d334d" />
    <path
        d="M15.7,300.8V248H37.9a18.13,18.13,0,0,1,12.2,4.9c3.8,3.3,5.6,7.6,5.6,13a17.29,17.29,0,0,1-5.4,12.9,17.07,17.07,0,0,1-12.4,5.1H27.4v17H15.7Zm11.5-27.7h9.9a7.57,7.57,0,0,0,4.6-1.6c1.5-1.2,2.1-3,2.1-5.6a6.71,6.71,0,0,0-6.7-7.4H27.2Z"
        transform="translate(0 0.3)" style="fill:#2d334d" />
    <path
        d="M82.6,300.8V248h22.1a17.27,17.27,0,0,1,12.7,5.1,16,16,0,0,1,5.3,12.4,16.17,16.17,0,0,1-9.4,15l12.9,20.4H113l-11-17.6H94.2v17.6H82.6Zm11.7-27.9h9.2c4.6,0,7.6-2.8,7.6-7.4a6.55,6.55,0,0,0-6.6-6.9H94.3Z"
        transform="translate(0 0.3)" style="fill:#2d334d" />
    <path d="M151.9,300.8V248H188v10.5H163.6v9.9h22.7v10.4H163.6V290h24.9v10.5H151.9Z" transform="translate(0 0.3)"
        style="fill:#2d334d" />
    <path d="M216.7,300.8V246l27.9,30.3L272.5,246v54.7H261.3V273.8l-16.6,18.6-16.6-18.6v26.9H216.7Z"
        transform="translate(0 0.3)" style="fill:#2d334d" />
    <path d="M302.7,300.8V248h11.7v52.7H302.7Z" transform="translate(0 0.3)" style="fill:#2d334d" />
    <path
        d="M344.1,247.9h11.7V278c0,8.6,3.6,12.9,10.9,12.9s10.7-4.3,10.7-12.9V247.8h11.7v31.5c0,7.1-2.1,12.5-6.4,16.5a23.3,23.3,0,0,1-16,5.8c-6.4,0-11.9-1.8-16.1-5.6s-6.4-9.4-6.4-16.5l-.1-31.6Z"
        transform="translate(0 0.3)" style="fill:#2d334d" />
    <path d="M418.4,300.8V246l27.9,30.3L474.2,246v54.7H463V273.8l-16.6,18.6-16.6-18.6v26.9H418.4Z"
        transform="translate(0 0.3)" style="fill:#2d334d" />
    <path
        d="M554.2,300.8V248h20.9a15.91,15.91,0,0,1,10.7,3.8,12,12,0,0,1,4.4,9.6c0,5.1-2.5,9.1-6.8,10.5,6.8,1.2,10.5,6.4,10.5,13a15,15,0,0,1-4.6,11.2,15.37,15.37,0,0,1-11.4,4.4H554v.3Zm11.5-31.9h7.6a5.5,5.5,0,1,0,0-11h-7.7v11Zm0,21.6h10.1c4,0,6.8-2.8,6.8-6.4s-2.8-6.3-6.9-6.3H565.6v12.7Z"
        transform="translate(0 0.3)" style="fill:#2d334d" />
    <path d="M616,300.8l27.5-55.9L671,300.8H658.6l-4.1-8.4H632.4l-4.1,8.4Zm20.8-18.5h13.3l-6.8-13.8Z"
        transform="translate(0 0.3)" style="fill:#2d334d" />
    <path
        d="M693.5,284.6c4.8,4.3,10.7,6.4,17.8,6.4,5.8,0,9.2-2.1,9.2-5.3a4.46,4.46,0,0,0-2.5-4.1,62.42,62.42,0,0,0-9.4-4c-9.1-3.3-14.2-7.9-14.2-15.8a12.88,12.88,0,0,1,5.4-10.9,22.5,22.5,0,0,1,13.5-4,27.5,27.5,0,0,1,14.2,3.6V262c-3.6-3-8.2-4.4-13.7-4.4-4.8,0-7.6,1.6-7.6,4.1,0,1.5.7,2.6,2.8,3.8l2.6,1.3,3.5,1.3,3.3,1.3c5.1,2,8.6,4.3,10.7,6.6s3.1,5.6,3.1,9.6c0,9.2-7.1,15.8-20.4,15.8a35.21,35.21,0,0,1-18.3-4.8V284.4h0Z"
        transform="translate(0 0.3)" style="fill:#2d334d" />
    <path d="M759.4,300.8V248h11.7v52.7H759.4Z" transform="translate(0 0.3)" style="fill:#2d334d" />
    <path
        d="M843.6,252.5v12.2a22.77,22.77,0,0,0-16.3-7.1,16.54,16.54,0,0,0-11.9,4.8,15.54,15.54,0,0,0-4.8,11.9,16.05,16.05,0,0,0,4.8,11.9,16.85,16.85,0,0,0,12,4.6,21.69,21.69,0,0,0,16.3-7.1v12.2a25.8,25.8,0,0,1-16.3,5.4,28.35,28.35,0,0,1-20.1-7.7,25.41,25.41,0,0,1-8.2-19.4,26,26,0,0,1,8.2-19.4c5.6-5.3,12.2-7.7,20.1-7.7A24.59,24.59,0,0,1,843.6,252.5Z"
        transform="translate(0 0.3)" style="fill:#2d334d" />
    <path
        d="M870.3,284.6c4.8,4.3,10.7,6.4,17.8,6.4,5.8,0,9.2-2.1,9.2-5.3a4.46,4.46,0,0,0-2.5-4.1,62.42,62.42,0,0,0-9.4-4c-9.1-3.3-14.2-7.9-14.2-15.8a12.88,12.88,0,0,1,5.4-10.9,22.5,22.5,0,0,1,13.5-4,27.5,27.5,0,0,1,14.2,3.6V262c-3.6-3-8.2-4.4-13.7-4.4-4.8,0-7.6,1.6-7.6,4.1,0,1.5.7,2.6,2.8,3.8l2.6,1.3,3.5,1.3,3.3,1.3c5.1,2,8.6,4.3,10.7,6.6s3.1,5.6,3.1,9.6c0,9.2-7.1,15.8-20.4,15.8a35.21,35.21,0,0,1-18.3-4.8V284.4h0Z"
        transform="translate(0 0.3)" style="fill:#2d334d" />
    <path
        d="M969.8,0V3h-5.6V17.7h-3.5V3h-5.6V0Zm19.1,17.6-.7-10.4a45.35,45.35,0,0,0-.2-4.9h0c-.5,1.5-1,3.6-1.5,5.3l-3.1,9.7h-3.6L976.7,7.2c-.3-1.3-.8-3.5-1.2-4.9h-.2a40.15,40.15,0,0,1-.2,4.9l-.7,10.4h-3.3L972.5,0h5.3l3,8.6c.3,1.3.7,2.6,1.2,4.4h0c.5-1.6.8-3.1,1.2-4.4l3-8.7h5.1l1.3,17.6h-3.5v.1Z"
        transform="translate(0 0.3)" style="fill:#2d334d" />
</svg>