<svg xmlns="http://www.w3.org/2000/svg" width="72.333" height="22" viewBox="0 0 72.333 22">
  <g id="BYLT_Premium-Basics_Horizontal_Logo_White" data-name="BYLT Premium-Basics Horizontal Logo White" transform="translate(0 0.3)">
    <g id="Grupo_126" data-name="Grupo 126" transform="translate(0 -0.3)">
      <g id="Grupo_124" data-name="Grupo 124">
        <g id="Grupo_123" data-name="Grupo 123">
          <g id="Grupo_122" data-name="Grupo 122">
            <g id="Grupo_116" data-name="Grupo 116" transform="translate(0 0.007)">
              <path id="Trazado_77" data-name="Trazado 77" d="M10.865,6.839a3.071,3.071,0,0,0,1.727-3.206c0-2.077-1.45-3.833-4.285-3.833H0L1.144,1.6V5.921l1.224-.663a1.568,1.568,0,0,0,.816-1.37V1.556h4.2c2.281,0,3.148.8,3.148,2.223C10.53,5.637,9.328,6.227,7.36,6.227H4.416A3.473,3.473,0,0,0,1.122,9.7v5.3H3.177V9.521a1.584,1.584,0,0,1,.386-1.079A1.507,1.507,0,0,1,4.3,7.976a1.569,1.569,0,0,1,.5-.058s3.17,0,3.294.015c1.574.058,3.192.561,3.192,2.543,0,1.691-1.079,2.776-3.221,2.776H4.722v1.756H8.154c3.359,0,5.167-2.055,5.167-4.489A3.455,3.455,0,0,0,10.865,6.839Z" transform="translate(0 0.2)" fill="#fff"/>
            </g>
            <g id="Grupo_117" data-name="Grupo 117" transform="translate(53.911 0.022)">
              <path id="Trazado_78" data-name="Trazado 78" d="M739.8,0V1.815h5.159l-.022,13.379h2.055V1.815h5.137V0Z" transform="translate(-739.8)" fill="#fff"/>
            </g>
            <g id="Grupo_118" data-name="Grupo 118" transform="translate(24.726 0.022)">
              <path id="Trazado_79" data-name="Trazado 79" d="M339.3,10.158v5.028h2.04V10.362a4.483,4.483,0,0,1,.685-2.376L347.068,0h-2.412l-4.839,8.176A4.1,4.1,0,0,0,339.3,10.158Z" transform="translate(-339.3)" fill="#fff"/>
            </g>
            <g id="Grupo_119" data-name="Grupo 119" transform="translate(38.958 0.022)">
              <path id="Trazado_80" data-name="Trazado 80" d="M534.6,0l1.144,1.815V15.194h2.048V0Z" transform="translate(-534.6)" fill="#fff"/>
            </g>
            <g id="Grupo_120" data-name="Grupo 120" transform="translate(43.818 13.387)">
              <rect id="Rectángulo_171" data-name="Rectángulo 171" width="6.027" height="1.822" fill="#fff"/>
            </g>
            <g id="Grupo_121" data-name="Grupo 121" transform="translate(17.067)">
              <path id="Trazado_81" data-name="Trazado 81" d="M239.8,1.777A4.478,4.478,0,0,0,236.015-.3H234.2l1.239,1.931h.59a2.55,2.55,0,0,1,2.15,1.173l2.711,4.263L242,5.216Z" transform="translate(-234.2 0.3)" fill="#fff"/>
            </g>
          </g>
        </g>
      </g>
      <g id="Grupo_125" data-name="Grupo 125" transform="translate(1.144 17.868)">
        <path id="Trazado_82" data-name="Trazado 82" d="M15.7,251.848V248h1.618a1.321,1.321,0,0,1,.889.357,1.185,1.185,0,0,1,.408.947,1.26,1.26,0,0,1-.394.94,1.244,1.244,0,0,1-.9.372h-.765v1.239H15.7Zm.838-2.019h.721a.551.551,0,0,0,.335-.117.48.48,0,0,0,.153-.408.489.489,0,0,0-.488-.539h-.721Z" transform="translate(-15.7 -247.774)" fill="#fff"/>
        <path id="Trazado_83" data-name="Trazado 83" d="M82.6,251.848V248h1.61a1.258,1.258,0,0,1,.925.372,1.165,1.165,0,0,1,.386.9,1.178,1.178,0,0,1-.685,1.093l.94,1.487h-.962l-.8-1.283h-.568v1.283H82.6Zm.853-2.033h.67a.509.509,0,0,0,.554-.539.477.477,0,0,0-.481-.5h-.743Z" transform="translate(-77.725 -247.774)" fill="#fff"/>
        <path id="Trazado_84" data-name="Trazado 84" d="M151.9,251.848V248h2.631v.765h-1.778v.721h1.654v.758h-1.654v.816h1.815v.765H151.9Z" transform="translate(-141.975 -247.774)" fill="#fff"/>
        <path id="Trazado_85" data-name="Trazado 85" d="M216.7,249.993V246l2.033,2.208L220.766,246v3.986h-.816v-1.96l-1.21,1.355-1.21-1.355v1.96H216.7Z" transform="translate(-202.053 -245.92)" fill="#fff"/>
        <path id="Trazado_86" data-name="Trazado 86" d="M302.7,251.848V248h.853v3.84H302.7Z" transform="translate(-281.786 -247.774)" fill="#fff"/>
        <path id="Trazado_87" data-name="Trazado 87" d="M344.1,247.807h.853V250c0,.627.262.94.794.94s.78-.313.78-.94v-2.2h.853v2.3a1.549,1.549,0,0,1-.466,1.2,1.854,1.854,0,0,1-2.339.015,1.528,1.528,0,0,1-.466-1.2l-.007-2.3Z" transform="translate(-320.169 -247.589)" fill="#fff"/>
        <path id="Trazado_88" data-name="Trazado 88" d="M418.4,249.993V246l2.033,2.208L422.466,246v3.986h-.816v-1.96l-1.21,1.355-1.21-1.355v1.96H418.4Z" transform="translate(-389.054 -245.92)" fill="#fff"/>
        <path id="Trazado_89" data-name="Trazado 89" d="M554.015,251.848V248h1.523a1.16,1.16,0,0,1,.78.277.874.874,0,0,1,.321.7.752.752,0,0,1-.5.765.9.9,0,0,1,.765.947,1.094,1.094,0,0,1-.335.816,1.12,1.12,0,0,1-.831.321H554v.022Zm.838-2.325h.554a.4.4,0,1,0,0-.8h-.561v.8Zm0,1.574h.736a.464.464,0,1,0-.007-.925h-.736v.925Z" transform="translate(-514.773 -247.774)" fill="#fff"/>
        <path id="Trazado_90" data-name="Trazado 90" d="M616,248.974l2-4.074,2,4.074h-.9l-.3-.612H617.2l-.3.612Zm1.516-1.348h.969l-.5-1.006Z" transform="translate(-572.255 -244.9)" fill="#fff"/>
        <path id="Trazado_91" data-name="Trazado 91" d="M693.5,249.647a1.866,1.866,0,0,0,1.3.466c.423,0,.67-.153.67-.386a.325.325,0,0,0-.182-.3,4.548,4.548,0,0,0-.685-.292c-.663-.24-1.035-.576-1.035-1.151a.939.939,0,0,1,.393-.794,1.64,1.64,0,0,1,.984-.292,2,2,0,0,1,1.035.262V248a1.507,1.507,0,0,0-1-.321c-.35,0-.554.117-.554.3,0,.109.051.189.2.277l.19.095.255.095.24.095a2.082,2.082,0,0,1,.78.481,1.011,1.011,0,0,1,.226.7c0,.67-.517,1.151-1.487,1.151a2.566,2.566,0,0,1-1.334-.35v-.889h0Z" transform="translate(-644.107 -246.754)" fill="#fff"/>
        <path id="Trazado_92" data-name="Trazado 92" d="M759.4,251.848V248h.853v3.84H759.4Z" transform="translate(-705.205 -247.774)" fill="#fff"/>
        <path id="Trazado_93" data-name="Trazado 93" d="M802.343,247.49v.889a1.659,1.659,0,0,0-1.188-.517,1.205,1.205,0,0,0-.867.35,1.132,1.132,0,0,0-.35.867,1.17,1.17,0,0,0,.35.867,1.228,1.228,0,0,0,.874.335,1.581,1.581,0,0,0,1.188-.517v.889a1.88,1.88,0,0,1-1.188.394,2.066,2.066,0,0,1-1.465-.561,1.852,1.852,0,0,1-.6-1.414,1.893,1.893,0,0,1,.6-1.414,2.028,2.028,0,0,1,1.465-.561A1.792,1.792,0,0,1,802.343,247.49Z" transform="translate(-742.012 -246.936)" fill="#fff"/>
        <path id="Trazado_94" data-name="Trazado 94" d="M870.3,249.647a1.866,1.866,0,0,0,1.3.466c.423,0,.67-.153.67-.386a.325.325,0,0,0-.182-.3,4.549,4.549,0,0,0-.685-.292c-.663-.24-1.035-.576-1.035-1.151a.939.939,0,0,1,.393-.794,1.64,1.64,0,0,1,.984-.292,2,2,0,0,1,1.035.262V248a1.507,1.507,0,0,0-1-.321c-.35,0-.554.117-.554.3,0,.109.051.189.2.277l.189.095.255.095.24.095a2.082,2.082,0,0,1,.78.481,1.011,1.011,0,0,1,.226.7c0,.67-.517,1.151-1.487,1.151a2.565,2.565,0,0,1-1.334-.35v-.889h0Z" transform="translate(-808.023 -246.754)" fill="#fff"/>
      </g>
    </g>
    <g id="Grupo_127" data-name="Grupo 127" transform="translate(69.601 -0.285)">
      <path id="Trazado_95" data-name="Trazado 95" d="M956.171-.093V.126h-.408V1.2h-.255V.126H955.1V-.093Zm1.392,1.283-.051-.758A3.288,3.288,0,0,0,957.5.075h0c-.036.109-.073.262-.109.386l-.226.707H956.9l-.226-.736c-.022-.095-.058-.255-.088-.357h-.015a2.911,2.911,0,0,1-.015.357l-.051.758h-.24l.1-1.283h.386l.219.627c.022.095.051.189.087.321h0c.036-.117.058-.226.088-.321l.219-.634h.372l.095,1.283h-.255V1.19Z" transform="translate(-955.1 0.1)" fill="#fff"/>
    </g>
  </g>
</svg>
