<?xml version="1.0" encoding="utf-8"?>
<!-- Generator: Adobe Illustrator 26.3.1, SVG Export Plug-In . SVG Version: 6.00 Build 0)  -->
<svg version="1.1" id="Layer_1" xmlns="http://www.w3.org/2000/svg" xmlns:xlink="http://www.w3.org/1999/xlink" x="0px" y="0px"
	 viewBox="0 0 114.9 22.5" style="enable-background:new 0 0 114.9 22.5;" xml:space="preserve">
<style type="text/css">
	.st0{fill-rule:evenodd;clip-rule:evenodd;}
</style>
<path class="st0" d="M10.3,0L10,4h-2L7.9,1.5H4.7v6h1.3c0.1-0.4,0.2-0.9,0.4-1.3h1.4v4.1H6.5L6.2,8.9H4.8v6.3H8l0.3-2.8l2.1,0.1
	l0.2,4.2H0.3v-1.4l1.4-0.3V1.7L0,1.4V0L10.3,0L10.3,0z M46.6,22.4c0-0.4,0.1-0.8,0.1-1.2l1.1-0.3V6.7c-0.4-0.1-0.8-0.1-1.3-0.2V5.4
	l3.4-0.4c0.1,0.4,0.3,0.9,0.4,1.3c0.1,0,0.1-0.1,0.2-0.1c0.8-1,1.9-1.3,3.1-1.2c1.5,0.2,2.4,1.2,2.8,2.5c0.2,0.6,0.4,1.3,0.4,1.9
	c0.1,1.3,0.1,2.7-0.1,3.9c-0.1,0.4-0.3,1-0.4,1.4c-0.6,1.3-1.7,2.1-3.1,2.2c-0.8,0.1-1.5,0-2.2-0.4h-0.2V21l1.2,0.3
	c0,0.4-0.1,0.7-0.1,1.2L46.6,22.4L46.6,22.4z M50.6,15c0.9,0.4,1.8,0.4,2.7,0.1c0.2-0.1,0.3-0.2,0.4-0.4c0.1-0.4,0.3-0.9,0.3-1.3
	c0.2-1.3,0.2-2.8,0.1-4.1c0-0.5-0.1-1-0.3-1.4c-0.3-1-1-1.3-2-1.2h-0.2c-0.6,0.1-1,0.5-1,1.2L50.6,15L50.6,15z M84.6,15.3l1.2,0.3
	c0,0.4,0,0.8-0.1,1.3h-3.9v-8c0-0.4-0.1-0.7-0.2-1.1c-0.1-0.4-0.4-0.6-0.9-0.7s-0.8-0.1-1.2,0.1s-0.6,0.4-0.6,0.8v7.4l1.2,0.3
	c0,0.4-0.1,0.8-0.1,1.3h-5v-1.2l1.2-0.3V6.8c-0.4-0.1-0.8-0.1-1.3-0.2V5.4l3.3-0.4L78.4,6c0.3-0.2,0.5-0.4,0.8-0.6
	c1.1-0.7,2.3-0.8,3.5-0.4c1,0.4,1.5,1.2,1.7,2.2c0.1,0.3,0.1,0.6,0.1,0.9v6.7C84.6,15,84.6,15.1,84.6,15.3L84.6,15.3z M15.4,15.4
	l1.2,0.3c0,0.4-0.1,0.8-0.1,1.3h-5.1c0-0.4,0-0.8,0.1-1.3l1.1-0.3c0.1-0.3,0.1-8,0-8.5c-0.4-0.1-0.8-0.1-1.3-0.2V5.5L14.6,5l0.3,1.1
	l0.3-0.3c1.1-0.9,2.3-1.2,3.7-0.8c1.2,0.3,1.8,1.1,2.1,2.2c0.1,0.3,0.1,0.6,0.1,0.9v7.2l1.2,0.3v1.3h-3.9V9c0-0.3,0-0.6-0.1-0.9
	c-0.1-0.7-0.5-1.1-1.2-1.2c-0.5-0.1-1,0-1.3,0.4c-0.2,0.2-0.2,0.4-0.2,0.6L15.4,15.4L15.4,15.4z M102.7,6.5c-0.4,0-0.8-0.1-1.3-0.1
	V5.4l3.8-0.4c0.2,0.4,0.4,0.9,0.4,1.4v9l1.2,0.3c0,0.4-0.1,0.8-0.1,1.3h-3.3c-0.1-0.3-0.2-0.6-0.3-1c-0.1,0.1-0.2,0.2-0.3,0.2
	c-1.3,1.3-3.1,1.1-4.3,0.5c-0.9-0.4-1.3-1.2-1.5-2.1c-0.1-0.4-0.1-0.6-0.1-1V6.6c-0.4-0.1-0.9-0.1-1.3-0.2V5.4l3.8-0.4
	c0.1,0.4,0.3,0.8,0.3,1.3V13c0,0.3,0,0.6,0.1,0.9c0.1,0.8,0.6,1.3,1.4,1.3c0.3,0,0.6-0.1,0.9-0.1c0.3-0.1,0.7-0.6,0.7-0.9V6.8
	C102.7,6.7,102.7,6.6,102.7,6.5L102.7,6.5z M40.3,11.6c0,1,0.2,1.8,0.6,2.6c0.4,0.6,1.1,1,1.9,1.1c0.8,0,1.5-0.2,2.2-0.4
	c0.1,0,0.2-0.1,0.4-0.1c0.2,0.4,0.3,0.7,0.4,1.1c-0.2,0.2-0.4,0.3-0.6,0.4c-1.4,0.8-3,1.1-4.5,0.5c-1.3-0.4-2.1-1.3-2.8-2.5
	c-0.6-1.3-0.8-2.8-0.6-4.2c0.1-0.9,0.3-1.8,0.6-2.6c0.6-1.3,1.6-2.2,3-2.5s2.7-0.1,3.8,0.9c0.6,0.6,1,1.4,1.3,2.2
	c0.3,0.9,0.4,1.7,0.4,2.6c0,0.3-0.2,0.5-0.3,0.9L40.3,11.6L40.3,11.6z M43.7,10.1c0-0.4-0.1-0.6-0.1-0.9c-0.1-0.7-0.2-1.3-0.5-2
	c-0.4-0.7-1-0.9-1.7-0.6c-0.3,0.1-0.4,0.3-0.6,0.5c-0.4,1-0.5,2-0.6,3v0.3L43.7,10.1L43.7,10.1z M95,11.6l-5.8,0.1
	c-0.1,0.4,0,0.8,0.1,1.2c0.1,0.6,0.3,1.1,0.7,1.6c0.4,0.5,1,0.8,1.7,0.8s1.4-0.1,2.1-0.4c0.2-0.1,0.3-0.1,0.4-0.2
	c0.2,0.4,0.3,0.7,0.4,1.1c-0.1,0-0.1,0.1-0.2,0.1c-1.3,0.9-2.6,1.2-4.1,1.1c-1.8-0.2-3-1.3-3.7-3c-0.9-2.1-0.8-4.3,0.1-6.4
	c0.5-1.3,1.5-2.3,3-2.6c1.2-0.3,2.3-0.2,3.3,0.5c0.7,0.5,1.2,1.3,1.5,2c0.4,1,0.5,2.1,0.5,3.2C95.3,11,95.1,11.3,95,11.6L95,11.6z
	 M92.8,10.1c0-0.8-0.1-1.5-0.4-2.2c-0.1-0.4-0.3-0.7-0.5-1c-0.4-0.6-1.9-0.4-2.1,0.4c-0.2,0.6-0.4,1.3-0.4,2
	c-0.1,0.4-0.1,0.7-0.1,1.2L92.8,10.1L92.8,10.1z M74.4,11.6l-5.8,0.1c0,1.1,0.2,2,0.8,2.8c0.4,0.5,1,0.8,1.6,0.8
	c0.7,0,1.5-0.1,2.1-0.4c0.2-0.1,0.3-0.1,0.4-0.2c0.2,0.4,0.3,0.7,0.4,1.1c-0.2,0.1-0.3,0.2-0.4,0.3c-1.3,0.8-2.8,1.1-4.3,0.8
	c-1.4-0.3-2.4-1.2-3-2.4c-0.6-1.3-0.8-2.7-0.7-4.1c0.1-1,0.3-1.9,0.6-2.8c0.4-1.1,1.2-1.9,2.2-2.3c1.3-0.5,2.5-0.5,3.8,0.1
	c0.8,0.4,1.3,1.2,1.7,2c0.4,1.1,0.6,2.2,0.6,3.4C74.7,11,74.5,11.3,74.4,11.6L74.4,11.6z M72.2,10.1c0-0.4-0.1-0.7-0.1-1.1
	c-0.1-0.6-0.2-1.3-0.5-1.8c-0.4-0.7-1.1-1-1.8-0.6c-0.2,0.1-0.4,0.2-0.4,0.4c-0.4,0.7-0.5,1.5-0.6,2.3c0,0.3-0.1,0.5-0.1,0.9
	C69.7,10.3,70.9,10.2,72.2,10.1L72.2,10.1z M32.6,5l0.3,1.1c0.2-0.1,0.3-0.2,0.4-0.3C34.2,5.4,35.1,5.1,36,5
	c0.4-0.1,0.8,0.1,1.1,0.4l-0.4,3.1c-0.6,0-1.3-0.1-1.9-0.1c-0.1-0.5-0.2-1.1-0.2-1.7c-0.4,0-0.8,0.2-1.2,0.4v8l1.2,0.3
	c0,0.4,0,0.8-0.1,1.2h-5v-1.2l1.1-0.3V6.8c-0.4-0.1-0.8-0.1-1.3-0.2V5.4C30.4,5.4,31.5,5.2,32.6,5L32.6,5z M107.3,16.8
	c0-0.4,0-0.8,0.1-1.2l1.1-0.3V6.9c-0.4-0.1-0.8-0.1-1.3-0.2V5.5l3.4-0.4l0.3,1l1.4-0.6c0.5-0.2,1-0.3,1.5-0.4c0.4-0.1,0.8,0,1.1,0.4
	l-0.4,3.1c-0.6,0-1.3-0.1-1.9-0.1c-0.1-0.5-0.2-1.2-0.2-1.7l-1.2,0.4v8.1l1.2,0.3c0,0.4-0.1,0.8-0.1,1.2L107.3,16.8L107.3,16.8z
	 M62.9,6.8l-1.2,0.4v8.1l1.2,0.3c0,0.4-0.1,0.8-0.1,1.2h-5v-1.2l1.1-0.3V6.9c-0.4-0.1-0.8-0.1-1.3-0.2V5.5L61,5l0.3,1l1-0.5
	c0.6-0.3,1.3-0.4,2-0.5c0.5,0,0.9,0.2,1.2,0.5L65,8.6c-0.6,0-1.3-0.1-1.9-0.1L62.9,6.8L62.9,6.8z M26.2,2.8v2.4h2.1
	c-0.1,0.5-0.1,1-0.1,1.5c-0.6,0-1.3,0.1-1.9,0.2v7.6c0.1,0.4,0.4,0.8,0.9,0.8h1.2c0,0.4,0.1,0.8,0.1,1.3c-0.3,0.2-0.6,0.3-1,0.4
	c-0.7,0.2-1.4,0.2-2.1,0.1c-1.1-0.2-1.8-0.9-2-2.1v-8c-0.4-0.1-0.9-0.2-1.3-0.2c0-0.4,0-1,0.1-1.4c0.5,0,1-0.1,1.5-0.1L24.2,3
	L26.2,2.8L26.2,2.8z"/>
</svg>
