<?xml version="1.0" encoding="utf-8"?>
<!-- Generator: Adobe Illustrator 26.4.1, SVG Export Plug-In . SVG Version: 6.00 Build 0)  -->
<svg version="1.1" id="artwork" xmlns="http://www.w3.org/2000/svg" xmlns:xlink="http://www.w3.org/1999/xlink" x="0px" y="0px"
	 viewBox="0 0 43.1 19.8" style="enable-background:new 0 0 43.1 19.8;" xml:space="preserve">
<style type="text/css">
	.st0{fill:#808080;}
</style>
<g>
	<g>
		<path class="st0" d="M33.2,1c4.9,0,8.9,4,8.9,8.9s-4,8.9-8.9,8.9H9.9C5,18.8,1,14.8,1,9.9S5,1,9.9,1H33.2 M33.2,0H9.9
			C4.4,0,0,4.4,0,9.9s4.4,9.9,9.9,9.9h23.3c5.5,0,9.9-4.4,9.9-9.9S38.6,0,33.2,0L33.2,0z"/>
	</g>
	<g>
		<path class="st0" d="M10.2,10.3L9.6,11v1.1h-1V7.7h1v2.1l2-2.1h1.1l-1.8,2l1.9,2.4h-1.2L10.2,10.3z"/>
		<path class="st0" d="M13.2,7.7h1v4.4h-1V7.7z"/>
		<path class="st0" d="M19.3,7.7v4.4h-0.8l-2.2-2.7v2.7h-1V7.7h0.8l2.2,2.7V7.7H19.3z"/>
		<path class="st0" d="M23.8,11.3v0.8h-3.4V7.7h3.3v0.8h-2.3v1h2v0.8h-2v1H23.8z"/>
		<path class="st0" d="M25.5,8.5h-1.4V7.7H28v0.8h-1.4v3.6h-1V8.5z"/>
		<path class="st0" d="M28.5,7.7h1v4.4h-1V7.7z"/>
		<path class="st0" d="M31.5,11.9c-0.4-0.2-0.6-0.5-0.9-0.8s-0.3-0.7-0.3-1.2s0.1-0.8,0.3-1.2s0.5-0.6,0.9-0.8s0.8-0.3,1.2-0.3
			c0.4,0,0.7,0.1,1,0.2c0.3,0.1,0.6,0.3,0.8,0.6L33.9,9c-0.3-0.3-0.7-0.5-1.1-0.5c-0.3,0-0.5,0.1-0.7,0.2c-0.2,0.1-0.4,0.3-0.5,0.5
			c-0.1,0.2-0.2,0.5-0.2,0.7c0,0.3,0.1,0.5,0.2,0.7c0.1,0.2,0.3,0.4,0.5,0.5c0.2,0.1,0.5,0.2,0.7,0.2c0.4,0,0.8-0.2,1.1-0.5l0.7,0.6
			c-0.2,0.3-0.5,0.5-0.8,0.6s-0.7,0.2-1,0.2C32.2,12.2,31.8,12.1,31.5,11.9z"/>
	</g>
</g>
</svg>
