<?xml version="1.0" encoding="utf-8"?>
<!-- Generator: Adobe Illustrator 26.4.1, SVG Export Plug-In . SVG Version: 6.00 Build 0)  -->
<svg version="1.1" id="artwork" xmlns="http://www.w3.org/2000/svg" xmlns:xlink="http://www.w3.org/1999/xlink" x="0px" y="0px"
	 viewBox="0 0 28.6 19.8" style="enable-background:new 0 0 28.6 19.8;" xml:space="preserve">
<style type="text/css">
	.st0{fill:#808080;}
</style>
<g>
	<g>
		<path class="st0" d="M8,7.6h1v3.6h2.2v0.8H8V7.6z"/>
		<path class="st0" d="M12.2,11.6c-0.4-0.3-0.5-0.8-0.5-1.5V7.6h1v2.4c0,0.8,0.3,1.2,1,1.2c0.3,0,0.6-0.1,0.7-0.3
			c0.2-0.2,0.3-0.5,0.3-0.9V7.6h1v2.5c0,0.6-0.2,1.1-0.5,1.5s-0.8,0.5-1.5,0.5S12.6,12,12.2,11.6z"/>
		<path class="st0" d="M19.4,12.1l-1.1-1.5l-1,1.5h-1.2l1.6-2.2l-1.5-2.2h1.2l1,1.4l1-1.4h1.1L19,9.8l1.6,2.3H19.4z"/>
	</g>
	<path class="st0" d="M18.7,1c4.9,0,8.9,4,8.9,8.9s-4,8.9-8.9,8.9H9.9C5,18.8,1,14.8,1,9.9S5,1,9.9,1H18.7 M18.7,0H9.9
		C4.4,0,0,4.4,0,9.9s4.4,9.9,9.9,9.9h8.8c5.5,0,9.9-4.4,9.9-9.9S24.2,0,18.7,0L18.7,0z"/>
</g>
</svg>
