<svg aria-hidden="true" focusable="false" role="presentation" class="icon icon-friends" viewBox="0 0 46 37"
    xmlns="http://www.w3.org/2000/svg">
    <path fill="#FFF" stroke="#25293B"
        d="M9.29 21.038l-4.9 2.661a6.25 6.25 0 0 0-3.261 5.494v5.02c0 .763.619 1.382 1.382 1.382H43.7c.763 0 1.382-.619 1.382-1.382V29.3a6.221 6.221 0 0 0-3.459-5.595l-5.227-2.611a.124.124 0 0 1-.069-.11V19.6l.134-.226c.664-.94 1.207-1.96 1.616-3.035a3.499 3.499 0 0 0 1.515-2.878v-2.188c0-.662-.19-1.311-.548-1.87V8.3a6.218 6.218 0 0 0-1.474-4.513c-1.381-1.58-3.541-2.38-6.41-2.38a10.487 10.487 0 0 0-4.044.713 10.453 10.453 0 0 0-4.01-.714 10.435 10.435 0 0 0-4.026.714 10.508 10.508 0 0 0-4.048-.714c-2.869 0-5.029.802-6.41 2.381a6.26 6.26 0 0 0-1.474 4.495v1.124a3.48 3.48 0 0 0-.548 1.87v2.187c-.002.897.343 1.76.963 2.408a12.798 12.798 0 0 0 1.768 3.685v1.381a.124.124 0 0 1-.042.102zm21.888-16.87c2.04 0 3.496.484 4.334 1.442a3.47 3.47 0 0 1 .792 2.473c-.003.05-.003.101 0 .152v1.63c0 .34.127.668.355.921a.725.725 0 0 1 .193.488v2.188a.728.728 0 0 1-.46.672 1.384 1.384 0 0 0-.747.815 11.067 11.067 0 0 1-1.436 2.828c-.116.166-.235.318-.346.46a1.388 1.388 0 0 0-.318.88v1.87a2.875 2.875 0 0 0 1.617 2.579l5.222 2.611a3.473 3.473 0 0 1 1.93 3.122v3.533h-5.31v-3.533a6.22 6.22 0 0 0-3.459-5.595l-5.222-2.611a.127.127 0 0 1-.07-.11V19.6l.153-.208a13.722 13.722 0 0 0 1.607-3.053 3.499 3.499 0 0 0 1.515-2.878v-2.188c0-.662-.19-1.311-.548-1.87V8.3a6.282 6.282 0 0 0-1.11-4.052c.434-.054.871-.08 1.308-.079zm-13.742 7.106a.723.723 0 0 1 .194-.488c.227-.253.353-.58.354-.92v-1.65a1.423 1.423 0 0 0 0-.16 3.499 3.499 0 0 1 .788-2.45c.838-.954 2.302-1.438 4.333-1.438s3.496.484 4.334 1.442a3.47 3.47 0 0 1 .792 2.473c-.003.05-.003.101 0 .152v1.63c0 .34.127.668.355.921a.73.73 0 0 1 .193.488v2.188a.728.728 0 0 1-.46.672 1.384 1.384 0 0 0-.747.815 11.098 11.098 0 0 1-1.436 2.833c-.116.165-.235.317-.341.46a1.378 1.378 0 0 0-.318.88v1.87a2.87 2.87 0 0 0 1.612 2.574l5.227 2.611a3.475 3.475 0 0 1 1.93 3.122v3.533H11.97v-3.639a3.489 3.489 0 0 1 1.842-3.062l4.877-2.662a2.883 2.883 0 0 0 1.506-2.533v-1.842a1.384 1.384 0 0 0-.313-.833 10.003 10.003 0 0 1-1.677-3.468 1.371 1.371 0 0 0-.483-.75.734.734 0 0 1-.286-.581v-2.188zm-5.623 6.987a10.019 10.019 0 0 1-1.676-3.468 1.378 1.378 0 0 0-.484-.75.733.733 0 0 1-.285-.581v-2.188a.727.727 0 0 1 .193-.488c.228-.253.354-.58.355-.92v-1.65a2.029 2.029 0 0 0 0-.156 3.506 3.506 0 0 1 .778-2.455c.838-.953 2.303-1.437 4.334-1.437.434.002.868.031 1.298.088a6.324 6.324 0 0 0-1.105 4.025v1.124a3.48 3.48 0 0 0-.548 1.87v2.187c-.002.897.343 1.76.963 2.408a12.798 12.798 0 0 0 1.768 3.685v1.381a.122.122 0 0 1-.065.11L12.467 23.7a6.251 6.251 0 0 0-3.26 5.49v3.638H3.892V29.19a3.493 3.493 0 0 1 1.842-3.063l4.877-2.662a2.882 2.882 0 0 0 1.506-2.532V19.09a1.38 1.38 0 0 0-.304-.828z">
    </path>
</svg>