<svg aria-hidden="true" focusable="false" role="presentation" class="icon icon-cart" viewBox="0 0 21 19" xmlns="http://www.w3.org/2000/svg"><path fill="#222" stroke="#FFF" stroke-width=".25" d="M20.448 4.408a.683.683 0 0 0-.514-.25H5.914l-.37-2.489a.646.646 0 0 0-.638-.564H1.694a.655.655 0 0 0-.658.669c0 .376.288.669.658.669H4.35l1.73 11.563c.082.544.329 1.004.679 1.36a2.048 2.048 0 0 0-.597 1.463c0 1.13.905 2.05 2.017 2.05 1.112 0 2.017-.92 2.017-2.05 0-.25-.04-.502-.144-.71h4.673a2.09 2.09 0 0 0-.144.71c0 1.13.906 2.05 2.018 2.05 1.111 0 2.017-.92 2.017-2.05 0-1.129-.906-2.05-2.017-2.05H8.467c-.556 0-1.03-.396-1.111-.96l-.103-.67H18.41c.309 0 .577-.23.638-.523l1.524-7.653a.69.69 0 0 0-.124-.565zm-8.605 4.914v2.489h-1.708l-.227-2.489h1.935zM9.785 7.984l-.227-2.488h2.285v2.488H9.785zm3.355 1.338h1.935l-.226 2.489H13.14V9.322zm0-1.338V5.496h2.285L15.2 7.984h-2.06zm-4.9-2.488l.227 2.488H6.491l-.37-2.488h2.12zM8.159 17.54a.7.7 0 0 1-.7-.71.7.7 0 1 1 1.4-.001.7.7 0 0 1-.7.711zm9.161-.71a.7.7 0 1 1-1.4 0 .7.7 0 0 1 .7-.712c.37-.02.7.314.7.711zM6.697 9.321H8.59l.226 2.489h-1.75l-.37-2.489zm9.47 2.489l.226-2.489h1.976l-.494 2.489h-1.709zm2.47-3.827h-2.12l.226-2.488h2.388l-.494 2.488z"/></svg>