<svg xmlns="http://www.w3.org/2000/svg" width="15.623" height="15.623" viewBox="0 0 15.623 15.623">
    <path id="icons8-tiktok"
        d="M18.2,4H5.42A1.42,1.42,0,0,0,4,5.42V18.2a1.42,1.42,0,0,0,1.42,1.42H18.2a1.42,1.42,0,0,0,1.42-1.42V5.42A1.42,1.42,0,0,0,18.2,4Zm-.931,6.728c-.092.009-.185.014-.279.014a3.033,3.033,0,0,1-2.538-1.371v4.671A3.452,3.452,0,1,1,11,10.589c.072,0,.143.006.213.011v1.7A1.758,1.758,0,1,0,11,15.8a1.805,1.805,0,0,0,1.833-1.74c0-.039.017-7.932.017-7.932h1.625a3.031,3.031,0,0,0,2.794,2.706Z"
        transform="translate(-4 -4)" fill="#fff" />
</svg>