<svg xmlns="http://www.w3.org/2000/svg" width="15.623" height="15.623" viewBox="0 0 15.623 15.623">
    <path id="icons8-linkedin"
        d="M17.763,4H5.86A1.861,1.861,0,0,0,4,5.86v11.9a1.861,1.861,0,0,0,1.86,1.86h11.9a1.861,1.861,0,0,0,1.86-1.86V5.86A1.861,1.861,0,0,0,17.763,4ZM8.836,9.952v7.067H6.6V9.952ZM6.6,7.895A.991.991,0,0,1,7.72,6.976a1.006,1.006,0,0,1,1.116.919.99.99,0,0,1-1.116.941A1.007,1.007,0,0,1,6.6,7.895Zm10.415,9.124H14.787V13.3a1.337,1.337,0,0,0-1.3-1.5h-.03c-.9,0-1.272.766-1.272,1.5v3.72H9.952V9.952h2.232V10.9a2.786,2.786,0,0,1,2.161-.952c1.477,0,2.674,1.015,2.674,3.072Z"
        transform="translate(-4 -4)" fill="#fff" />
</svg>