<svg xmlns="http://www.w3.org/2000/svg" width="15.623" height="15.623" viewBox="0 0 15.623 15.623">
    <path id="icons8-instagram"
        d="M7.555,3A4.562,4.562,0,0,0,3,7.558v6.51a4.562,4.562,0,0,0,4.558,4.555h6.51a4.562,4.562,0,0,0,4.555-4.558V7.555A4.562,4.562,0,0,0,14.065,3Zm7.813,2.6a.651.651,0,1,1-.651.651A.651.651,0,0,1,15.368,5.6Zm-4.557,1.3a3.906,3.906,0,1,1-3.906,3.906A3.91,3.91,0,0,1,10.811,6.906Zm0,1.3a2.6,2.6,0,1,0,2.6,2.6,2.6,2.6,0,0,0-2.6-2.6Z"
        transform="translate(-3 -3)" fill="#fff" />
</svg>