<svg aria-hidden="true" focusable="false" role="presentation" class="icon icon-question" viewBox="0 0 24 24" xmlns="http://www.w3.org/2000/svg"><path fill="#222" stroke="#222" stroke-width=".5" d="M.6 12c0 6.295 5.105 11.4 11.4 11.4S23.4 18.295 23.4 12 18.295.6 12 .6.6 5.705.6 12zm21.6 0c0 5.632-4.568 10.2-10.2 10.2S1.8 17.632 1.8 12 6.368 1.8 12 1.8 22.2 6.368 22.2 12zm-10.8 3.6h1.2v1.2h-1.2v-1.2zM9.822 7.87c.549-.582 1.3-.874 2.256-.874.885 0 1.593.25 2.124.748.532.499.798 1.137.798 1.912 0 .47-.096.85-.289 1.144-.193.292-.588.722-1.186 1.29-.434.412-.717.76-.848 1.047-.132.285-.197.708-.197 1.267h-1.184c0-.634.075-1.144.225-1.532.151-.388.486-.832 1.007-1.334l.543-.526c.163-.15.295-.308.395-.472.184-.288.276-.587.276-.897 0-.435-.132-.811-.397-1.131-.265-.319-.703-.48-1.314-.48-.756 0-1.278.276-1.568.826-.163.306-.256.747-.279 1.323H9c0-.957.275-1.728.822-2.31z"/></svg>