<svg xmlns="http://www.w3.org/2000/svg" width="21.043" height="15.623" viewBox="0 0 21.043 15.623">
  <path id="icons8-youtube"
    d="M23.455,11.685a2.773,2.773,0,0,0-2.2-2.1A43.439,43.439,0,0,0,13.447,9a44.079,44.079,0,0,0-7.859.585,2.71,2.71,0,0,0-2.2,2.1A32.032,32.032,0,0,0,3,16.811a26.571,26.571,0,0,0,.439,5.126,2.779,2.779,0,0,0,2.2,2.1,44.91,44.91,0,0,0,7.861.585,44.91,44.91,0,0,0,7.861-.585,2.712,2.712,0,0,0,2.2-2.1,37.45,37.45,0,0,0,.488-5.126A34.162,34.162,0,0,0,23.455,11.685ZM10.811,20.229V13.394l5.956,3.417Z"
    transform="translate(-3 -9)" fill="#fff" />
</svg>