<svg aria-hidden="true" focusable="false" role="presentation" class="icon icon-account" viewBox="0 0 25 26" xmlns="http://www.w3.org/2000/svg"><path fill="#222" stroke="#222" stroke-width=".5" d="M12.522 25c6.627 0 12-5.373 12-12s-5.373-12-12-12c-6.628 0-12 5.373-12 12 .007 6.624 5.375 11.993 12 12zm0-1.021a10.915 10.915 0 0 1-6.4-2.067.522.522 0 0 0 .016-.125 6.385 6.385 0 0 1 12.765 0c0 .042.006.084.016.125a10.915 10.915 0 0 1-6.397 2.067zM9.434 11.293a3.09 3.09 0 1 1 6.18-.006 3.09 3.09 0 0 1-6.18.006zm3.088-9.272a10.974 10.974 0 0 1 7.374 19.107 7.427 7.427 0 0 0-5.129-6.4 4.11 4.11 0 1 0-4.491 0 7.421 7.421 0 0 0-5.128 6.4 10.973 10.973 0 0 1 7.373-19.107z"/></svg>