<svg version="1.1" xmlns="http://www.w3.org/2000/svg" x="0px" y="0px"
     viewBox="0 0 221.4 32.1" style="enable-background:new 0 0 221.4 32.1;" xml:space="preserve">
    <g>
	<path style="fill:#fff;" d="M20.5,32c-3.8,0-7.7,0-11,0H7.9C7.1,32,6.4,31.5,6,30.8l-0.2-0.4L0.2,13.8c-0.6-1.4,0.5-2.9,2-2.9H9
		c1.8,0,3.5,1.1,4.1,2.8l7,16.9c0.3,0.8,1,1.5,1.8,1.4L20.5,32L20.5,32z"/>
        <path style="fill:#fff;" d="M20.1,30.6c0.3,0.8,1,1.4,1.8,1.4h-1.4c-3.8,0-7.7,0-11,0l5.3-14L20.1,30.6z"/>
        <path style="fill:#FFFFFF;" d="M21.8,32c-0.8,0-1.4-0.7-1.7-1.4L14.9,18l0,0L9.6,32c3.3,0,7.2,0,11,0c0.4,0,0.7,0,1.1,0
		C21.7,32,21.8,32,21.8,32z M16.6,13.7l4.1-10.6c0.7-1.7,2.3-2.8,4.1-2.8H32c1.5,0,2.5,1.5,2,2.9l-9.7,27.3c0,0,0,0.1,0,0.1
		c-0.2,0.5-0.7,1-1.2,1.2c-0.1,0-0.1,0-0.2,0.1c0,0,0,0,0,0c0,0,0,0,0,0c-1.8-0.5-1.9-2.6-1.9-2.6L16.6,13.7z M22.6,32
		C22.6,32,22.6,32,22.6,32C22.6,32,22.6,32,22.6,32C22.6,32,22.6,32,22.6,32C22.6,32,22.6,32,22.6,32z M22.5,32
		C22.5,32,22.5,32,22.5,32c-0.1,0-0.1,0-0.2,0l0,0l0,0C22.4,32,22.5,32,22.5,32C22.5,32,22.5,32,22.5,32z"/>
        <path style="fill:#fff;" d="M47.4,32.1c-4,0-6.7-2.6-6.7-6.3c0-3.6,2.5-6.3,6.5-7.1l7.2-1.3l0-0.1c-0.3-2.1-2.2-3.1-4-3.1
		c-2.8,0-4.6,1.9-5,2.4l-3.5-3.5c0.5-0.6,3.6-4.2,9-4.2c5.5,0,9.5,3.7,9.5,8.8v13.8h-5.9v-2.7h-0.4l0,0.1
		C53.9,29,51.6,32.1,47.4,32.1z M49.2,22.5c-1.6,0.3-2.6,1.2-2.6,2.4c0,1.5,1.1,2.4,2.9,2.4c2.9,0,4.9-2.2,4.9-5.2v-0.6L49.2,22.5z"
        />
        <path style="fill:#fff;" d="M74.2,32.1c-6.5,0-11.8-5.2-11.8-11.5C62.4,14.2,67.7,9,74.2,9c2.5,0,4.7,0.7,6.7,2l-2.5,4.9
		c-0.9-0.7-2.4-1.4-4.2-1.4c-3.3,0-5.9,2.6-5.9,6.1c0,3.5,2.5,6.1,5.9,6.1c1.8,0,3.3-0.8,4.2-1.4l2.5,4.9
		C78.9,31.4,76.6,32.1,74.2,32.1z"/>
        <path style="fill:#fff;" d="M93.1,32.1c-6.5,0-11.8-5.2-11.8-11.5C81.3,14.2,86.6,9,93.1,9c2.5,0,4.7,0.7,6.7,2l-2.5,4.9
		c-0.9-0.7-2.4-1.4-4.2-1.4c-3.3,0-5.9,2.6-5.9,6.1c0,3.5,2.5,6.1,5.9,6.1c1.8,0,3.3-0.8,4.2-1.4l2.5,4.9
		C97.8,31.4,95.6,32.1,93.1,32.1z"/>
        <path style="fill:#fff;" d="M112.3,32.1c-6.5,0-11.8-5.2-11.8-11.5c0-3.1,1.2-6,3.4-8.1C106.1,10.2,109,9,112,9c6.1,0,11.1,5,11.1,11.1
		c0,1.3-0.2,2.3-0.2,2.6h-16.3l0.1,0.2c0.8,2.5,3.1,4,6.1,4c2.1,0,3.6-0.7,4.6-1.3l4.2,3.2C120.7,29.4,117.4,32.1,112.3,32.1z
		 M111.8,14.2c-2.8,0-4.6,2.1-5.2,4l-0.1,0.2H117l-0.1-0.2C116.3,16.3,114.6,14.2,111.8,14.2z"/>
        <path style="fill:#fff;" d="M210.6,32.1c-6.5,0-11.8-5.2-11.8-11.5c0-3.1,1.2-6,3.4-8.1c2.2-2.2,5.1-3.4,8.1-3.4c6.1,0,11.1,5,11.1,11.1
		c0,1.3-0.2,2.3-0.2,2.6h-16.3l0.1,0.2c0.8,2.5,3.1,4,6.1,4c2.1,0,3.6-0.7,4.6-1.3l4.2,3.2C219,29.4,215.8,32.1,210.6,32.1z
		 M210.1,14.2c-2.8,0-4.6,2.1-5.2,4l-0.1,0.2h10.5l-0.1-0.2C214.7,16.3,213,14.2,210.1,14.2z"/>
        <path style="fill:#fff;" d="M164.6,32V9h5.9V32H164.6z"/>
        <path style="fill:#fff;" d="M175.2,32.1c-0.5,0-1-0.4-1-1V1.3c0-0.5,0.4-1,1-1h9.6c3,0,5.6,0.9,7.5,2.5c1.7,1.5,2.7,3.6,2.7,5.8
		c0,4.9-4.2,6.5-4.3,6.5l-0.4,0.1l0.4,0.1c0.1,0,5.9,1.6,5.9,7.7c0,5.3-4.5,9-10.9,9L175.2,32.1L175.2,32.1z M180.4,26.4h5.1
		c2.7,0,4.5-1.6,4.5-4s-1.8-4-4.5-4h-5.1V26.4z M180.4,12.7h4.2c2.3,0,3.8-1.3,3.8-3.3S186.8,6,184.5,6h-4.2V12.7z"/>
        <path style="fill:#fff;" d="M133.9,32.1c-2.3,0-4.2-0.5-5.8-1.5c-1.4-0.9-2.2-2.1-2.7-3l4.9-2.2c0.6,1.3,1.8,2,3.5,2c1.7,0,2.7-0.8,2.7-2
		c0-1.1-0.7-1.8-2.2-2.1l-2.8-0.7c-4-0.9-6.1-3.1-6.1-6.4c0-4,3.6-7.2,8.2-7.2c2.4,0,4.3,0.6,5.9,1.7c1.4,1,2.1,2.3,2.4,3.2
		l-4.9,2.1c-0.2-0.7-0.9-2.3-3.3-2.3c-1.4,0-2.6,0.9-2.6,2c0,1.3,1.2,1.8,1.8,2l3.1,0.7c4.2,0.9,6.5,3.3,6.5,6.6
		C142.4,28.3,139.7,32.1,133.9,32.1z"/>
        <path style="fill:#fff;" d="M152.6,32.1c-2.3,0-4.2-0.5-5.8-1.5c-1.4-0.9-2.2-2.1-2.7-3l4.9-2.2c0.6,1.3,1.8,2,3.5,2c1.7,0,2.7-0.8,2.7-2
		c0-1.1-0.7-1.8-2.2-2.1l-2.8-0.7c-4-0.9-6.1-3.1-6.1-6.4c0-4,3.6-7.2,8.2-7.2c2.4,0,4.3,0.6,5.9,1.7c1.4,1,2.1,2.3,2.4,3.2
		l-4.9,2.1c-0.2-0.7-0.9-2.3-3.3-2.3c-1.4,0-2.6,0.9-2.6,2c0,1.3,1.2,1.8,1.8,2l3.1,0.7c4.2,0.9,6.5,3.3,6.5,6.6
		C161.1,28.3,158.5,32.1,152.6,32.1z"/>
        <path style="fill:#fff;" d="M164.3,3.6c0,1.8,1.6,3.3,3.4,3.3c1.9,0,3.4-1.5,3.4-3.3c0-1.8-1.6-3.3-3.4-3.3C165.8,0.3,164.3,1.8,164.3,3.6
		z"/>
</g>
</svg>
