<?xml version="1.0" encoding="utf-8"?>
<!-- Generator: Adobe Illustrator 26.3.1, SVG Export Plug-In . SVG Version: 6.00 Build 0)  -->
<svg version="1.1" id="Layer_1" xmlns="http://www.w3.org/2000/svg" xmlns:xlink="http://www.w3.org/1999/xlink" x="0px" y="0px"
	 viewBox="0 0 178.2 38" style="enable-background:new 0 0 178.2 38;" xml:space="preserve">
<g>
	<path d="M18.8,38c-1.8,0-3.6,0-5.4,0c0-7.4,0-14.7,0-22h-0.1c-1.1,3.1-2.3,6.2-3.5,9.4c-0.3,0-0.7,0-1,0c-1.2-3.1-2.3-6.2-3.5-9.5
		c0,7.5,0,14.9,0,22.2c-1.8,0-3.6,0-5.4,0C0,25.3,0,12.7,0,0.1l0,0c0,0,0,0,0.1,0c1.4,0,2.9,0,4.3,0c1.7,4.4,3.3,8.7,5,13.1
		c1.7-4.4,3.4-8.8,5-13.1c1.5,0,3,0,4.4,0C18.8,12.7,18.8,25.3,18.8,38z"/>
	<path d="M42.9,16.6c0-5.5,0-11,0-16.6c1.7,0,3.4,0,5.1,0c0,12.6,0,25.3,0,37.9c-1.3,0-2.7,0-4.1,0c-0.1-0.2-0.3-0.5-0.3-0.8
		c0-0.5-0.3-1-0.3-1.5c-0.1-0.5-0.2-1-0.4-1.5s-0.1-1-0.4-1.4c0-0.7-0.4-1.3-0.5-2s-0.3-1.4-0.5-2c-0.3-1.1-0.4-2.2-0.9-3.3
		c-0.1-1-0.4-2-0.7-2.9c-0.3-1.1-0.4-2.2-0.9-3.3c-0.2-0.4-0.2-0.8-0.2-1.2h-0.1c0,0,0,0,0,0.1c0,6.6,0,13.1,0,19.7
		c-1.7,0-3.5,0-5.2,0c0-12.6,0-25.2,0-37.9c1.6,0,3.2,0,4.9,0c0.1,0.2,0.3,0.5,0.3,0.7c0.1,0.7,0.3,1.5,0.5,2.2s0.3,1.4,0.6,2.1
		C40,5.5,40.1,6,40.3,6.6c0.1,0.6,0.2,1.1,0.4,1.7c0.4,1,0.5,2.1,0.9,3.1c0.2,0.5,0.3,1,0.4,1.4c0.1,0.7,0.4,1.4,0.6,2.2
		c0,0.2,0.1,0.3,0.1,0.5c0,0.1,0.2,0.3,0.1,0.4C42.5,16.3,42.8,16.4,42.9,16.6z"/>
	<path d="M139.9,17.9c0,6.7,0,13.4,0,20.1c-1.7,0-3.3,0-5,0c0-12.6,0-25.3,0-37.9c1.6,0,3.2,0,4.9,0c1.5,5.5,2.9,11,4.4,16.5
		c0,0,0,0,0.1,0c0-5.5,0-11,0-16.5c1.8,0,3.5,0,5.2,0c0,12.6,0,25.3,0,37.9c-1.4,0-2.8,0-4.2,0c-1.7-6.7-3.4-13.4-5.2-20.2
		C140,17.8,139.9,17.8,139.9,17.9z"/>
	<path d="M130.4,20.7c1.2,5.8,2.4,11.5,3.6,17.2c-1.9,0-3.7,0-5.5,0c-1.1-5.6-2.3-11.1-3.4-16.8c-0.2,0-0.4,0-0.6,0
		c0,5.6,0,11.2,0,16.8c-1.8,0-3.6,0-5.4,0c0-12.6,0-25.3,0-37.9c0.3,0,0.5,0,0.8,0c3.1,0,6.1,0,9.2,0c0.6,0,1.3,0.1,1.9,0.3
		c1.2,0.4,1.8,1.2,2.1,2.4c0.1,0.3,0.2,0.6,0.2,0.9s0.1,0.6,0.1,1c0,0.3,0,0.6,0,1c0,3.4,0,6.8,0,10.2c0,0.9-0.2,1.8-0.3,2.6
		c-0.1,0.3-0.2,0.6-0.4,0.9c-0.5,0.6-1,1.2-1.9,1.3C130.7,20.5,130.5,20.6,130.4,20.7z M124.5,4.9c0,3.8,0,7.5,0,11.3
		c0.9,0,1.9,0,2.8,0c0.2-0.3,0.4-0.6,0.6-0.9c0-2.9,0-5.8,0-8.6c0-0.5,0-1-0.3-1.6c-0.2-0.1-0.4-0.2-0.7-0.2
		C126.2,4.9,125.4,4.9,124.5,4.9z"/>
	<path d="M101.9,18.9c0,4.9,0,9.8,0,14.7c0,1.4-0.5,2.7-1.7,3.6c-0.4,0.3-0.9,0.5-1.4,0.6c-0.3,0.1-0.5,0.1-0.8,0.2
		c-0.3,0-0.5,0-0.8,0c-1.7,0-3.5,0-5.2,0c-0.7,0-1.3-0.2-1.9-0.5c-1.1-0.4-1.9-1.6-2.1-2.7c-0.1-0.4-0.1-0.7-0.1-1
		c-0.3-1.8-0.1-3.7-0.1-5.5c0-1.9,0-3.7,0-5.6s0-3.7,0-5.6s0-3.7,0-5.6s0-3.7,0-5.6c0-0.9,0-1.8,0.2-2.6c0.1-0.6,0.3-1.2,0.6-1.6
		c0.3-0.4,0.6-0.8,0.9-1c0.3-0.3,0.8-0.4,1.2-0.6C91,0.1,91.5,0,91.9,0c2,0,3.9,0,5.9,0c0.5,0,1,0.2,1.5,0.3
		c1.2,0.3,1.9,1.1,2.3,2.2c0.2,0.6,0.4,1.3,0.3,2C101.9,9.3,101.9,14.1,101.9,18.9z M96.4,32.8c0-0.3,0.1-0.6,0.1-0.9
		c0-8.8,0-17.6,0-26.4c-0.2-0.2-0.4-0.4-0.6-0.6c-0.5,0-1,0-1.6,0c-0.4,0-0.7,0-1,0.2C93.3,5.6,93,6,93,6.5c0,2.2,0,4.3,0,6.5
		s0,4.4,0,6.6s0,4.3,0,6.5s-0.2,4.4,0.2,6.5c0.1,0.2,0.3,0.3,0.4,0.4c0.8,0,1.6,0,2.3,0C96.1,33,96.2,32.9,96.4,32.8z"/>
	<path d="M103.5,0c1.8,0,3.6,0,5.4,0c0,10.9,0,21.8,0,32.6c0.2,0.2,0.3,0.3,0.4,0.4c0.8,0,1.6,0,2.4,0c0.2-0.2,0.4-0.4,0.6-0.6
		c0-10.8,0-21.6,0-32.4c0,0,0,0,0.1-0.1c0,0,0,0,0.1,0c1.7,0,3.5,0,5.3,0c0,0.3,0,0.5,0,0.8c0,10.9,0,21.8,0,32.7
		c0,0.9-0.3,1.9-0.8,2.8c-0.4,0.6-1,1-1.6,1.3c-0.6,0.2-1.3,0.3-1.9,0.3c-1.9,0-3.8,0-5.6,0c-0.5,0-1-0.2-1.5-0.3
		c-1.2-0.3-2.2-1.5-2.5-2.8c-0.1-0.5-0.1-1-0.1-1.4C103.5,22.3,103.5,11.2,103.5,0z"/>
	<path d="M154.6,0c2.2,0,4.4,0,6.6,0c0.2,0,0.4,0,0.6,0.3c0,0.3,0,0.6,0,1c0,0.3,0.1,0.6,0.1,1c0,0.3-0.1,0.7,0.2,1v0.1
		c0.1,0.8,0.1,1.5,0.2,2.3c0,0.4,0.1,0.7,0.2,1c0,0.3-0.1,0.7,0.2,1c0,0,0,0.1,0,0.2c0.1,0.7,0.1,1.5,0.2,2.2c0,0.3,0.1,0.6,0.2,1
		c0,0.3-0.1,0.7,0.2,1v0.1c-0.1,0.7,0.2,1.4,0.2,2.2c0,0.4,0.1,0.7,0.1,1.1c0,0.3-0.1,0.7,0.2,1c0,0,0,0.1,0,0.2
		c0.1,0.7,0.1,1.5,0.2,2.2c0,0.3,0.1,0.6,0.2,1c0,0.3-0.1,0.7,0.2,1V21c-0.1,0.7,0.2,1.4,0.2,2.2c0,0.3,0.1,0.7,0.1,1
		s-0.1,0.7,0.2,1v0.1c0.1,0.7,0.1,1.5,0.2,2.2c0,0.4,0.1,0.7,0.2,1c0.1,0.3-0.2,0.7,0.2,1.1c0,0,0,0.1,0,0.2
		c0.1,0.7,0.1,1.5,0.2,2.2c0,0.3,0.1,0.6,0.2,1c0,0.3-0.1,0.7,0.2,1c0,0,0,0.1,0,0.2c0.1,0.7,0,1.5,0.2,2.2c0.1,0.6,0.1,1.3,0.1,1.9
		c-1.7,0-3.4,0-5.1,0c0.1-0.9-0.2-1.8-0.2-2.7c0-0.3-0.1-0.7-0.1-1s0.1-0.7,0-1c-0.2-0.7-0.1-1.4-0.2-2.2c-1.5,0-2.9,0-4.4,0
		c-0.2,0.6-0.2,1.3-0.2,2c0,0.3-0.2,0.7-0.2,1c0,0.4,0.1,0.7-0.1,1v0.1c-0.1,0.9-0.1,1.8-0.2,2.7c-1.7,0-3.3,0-5,0
		c0-0.3-0.1-0.5,0.1-0.8v-0.1c0.1-0.7,0.1-1.3,0.2-2c0-0.4,0.1-0.7,0.2-1c0.1-0.3-0.2-0.7,0.2-1v-0.1c0.1-0.7,0.1-1.3,0.2-2
		c0-0.3,0.1-0.6,0.2-1c0.1-0.3-0.1-0.6,0.1-0.9c0.1-0.1,0-0.2,0-0.3c0.1-0.7,0-1.4,0.2-2.1c0.2-0.6,0-1.3,0.3-1.9
		c0.2-0.6,0.1-1.3,0.2-2c0-0.4,0.1-0.7,0.2-1c0-0.4-0.1-0.7,0.2-1v-0.1c0.1-0.7,0.1-1.3,0.2-2c0-0.3,0.1-0.6,0.2-1
		c0.1-0.3-0.1-0.6,0.2-0.9c0,0,0-0.1,0-0.2c0.1-0.7,0.1-1.4,0.2-2.1c0-0.3,0.1-0.6,0.2-1c0-0.3-0.1-0.7,0.2-1v-0.1
		c0.1-0.7,0.1-1.3,0.2-2c0-0.4,0.1-0.7,0.2-1c0.1-0.3-0.1-0.7,0.2-1V8.5c0.1-0.7,0.1-1.3,0.2-2c0-0.3,0.1-0.6,0.2-1
		c0.1-0.3-0.1-0.6,0.1-0.9V4.5c-0.1-0.7,0.2-1.3,0.2-2c0-0.3,0.1-0.6,0.1-0.9s0-0.6,0-0.9C154.4,0.5,154.5,0.3,154.6,0z M159.7,26
		c-0.1-0.5-0.2-0.9-0.2-1.3c-0.1-0.5,0.1-1-0.1-1.4c-0.1-0.3,0-0.7,0-1.1s-0.1-0.7-0.1-1.1c0-0.5,0-1-0.1-1.4c-0.1-0.3,0-0.7,0-1
		s-0.1-0.6-0.1-1c0-0.5,0-1-0.1-1.5c-0.1-0.3,0-0.7,0-1.1c0-0.4-0.1-0.7-0.2-1.1c0-0.5,0-0.9-0.1-1.4c-0.1-0.4,0-0.8,0-1.2
		s-0.2-0.8-0.2-1.2c0-0.7-0.1-1.4-0.2-2c-0.2,0.6-0.4,1.1-0.3,1.7c0,0.2,0.1,0.4,0,0.5c-0.3,0.4-0.1,0.8-0.1,1.1
		c-0.1,0.4-0.1,0.8-0.2,1.2c-0.1,0.4,0,0.9-0.1,1.3c-0.1,0.3,0,0.8,0,1.2s-0.2,0.7-0.2,1.1c0.1,0.9-0.3,1.7-0.1,2.5v0.1
		c-0.3,0.3-0.2,0.8-0.1,1.1c0,0.4-0.2,0.8-0.2,1.2c0,0.5,0,1-0.1,1.5c-0.2,0.9-0.1,1.7-0.2,2.6c0,0.2-0.1,0.4-0.1,0.6
		C157.3,26,158.4,26,159.7,26z"/>
	<path d="M51.9,27.3c1.8,0,3.6,0,5.4,0c0,0.6,0,1.3,0,1.9c0,0.9,0,1.8,0,2.7c0,0.3,0.1,0.6,0.1,0.8c0.4,0.3,0.7,0.3,1.1,0.3
		c0.6,0,1.2,0,1.8,0c0.1-0.1,0.2-0.3,0.4-0.5c0,0,0-0.1,0-0.2c0-1.9,0-3.9,0-5.8c0-0.6-0.3-1.2-0.6-1.7c-0.3-0.4-0.5-0.7-0.8-1
		c-0.5-0.6-1.1-1.2-1.6-1.8c-0.8-0.9-1.6-1.8-2.3-2.7c-0.7-0.7-1.3-1.5-2-2.3c-0.6-0.6-1-1.4-1.3-2.2c0-0.1-0.1-0.3-0.1-0.5
		c0-3.5-0.1-7,0-10.5c0-1.7,0.9-3,2.7-3.7c0.6,0,1.2-0.1,1.9-0.1c1.8,0,3.5,0,5.3,0c0.7,0,1.4,0.2,2,0.5C65,1,65.6,1.9,65.9,3
		C66,3.6,66,4.1,66,4.7c0,2,0,4,0,6.1c-1.8,0-3.6,0-5.4,0c0-1.8,0-3.5,0-5.3c-0.2-0.2-0.4-0.4-0.6-0.6c-0.7,0-1.5,0-2.3,0
		c-0.2,0.2-0.3,0.3-0.5,0.5c0,2.3,0,4.5,0,6.9c0.2,0.4,0.5,0.9,0.8,1.4c0,0.1,0.1,0.1,0.1,0.2c0.6,0.6,1.1,1.2,1.7,1.8
		c0.3,0.3,0.5,0.6,0.8,0.9s0.7,0.5,0.8,0.9l0.1,0.1c0.6,0.6,1.2,1.2,1.7,1.9c0.7,0.9,1.5,1.6,2.1,2.5c0.4,0.6,0.6,1.2,0.6,1.9
		c0,3.3,0,6.6,0,9.9c0,1-0.4,1.9-1.1,2.7c-0.6,0.6-1.3,1-2.2,1.2c-0.2,0.2-0.6,0.3-1,0.3c-1.7,0-3.5,0-5.2,0c-1.1,0-2.2-0.3-3.1-1
		c-0.5-0.4-0.8-1-1-1.6S52,34.1,52,33.5c0-1.9,0-3.9,0-5.8C51.9,27.6,51.9,27.5,51.9,27.3z"/>
	<path d="M25.7,33c2.1,0,4.1,0,6.1,0c0,1.6,0,3.2,0,4.9c-3.8,0-7.7,0-11.6,0c0-12.6,0-25.2,0-37.9c3.8,0,7.7,0,11.5,0l0,0
		c0,0,0,0,0,0.1c0,1.6,0,3.2,0,4.8c-2.1,0-4.1,0-6.2,0c0,3.8,0,7.5,0,11.3c1.6,0,3.1,0,4.7,0c0,1.7,0,3.3,0,4.9c-1.6,0-3.1,0-4.7,0
		C25.7,25.1,25.7,29,25.7,33z"/>
	<path d="M80.8,0c1.8,0,3.6,0,5.4,0c0,0.3,0,0.5,0,0.8c0,10.9,0,21.9,0,32.8c0,0.8-0.3,1.6-0.6,2.4c-0.4,0.9-1.1,1.4-2,1.7
		C83,37.9,82.4,38,81.7,38c-1.9,0-3.8,0-5.6,0c-0.7,0-1.3-0.2-1.9-0.5c-1-0.4-1.6-1.2-2-2.2c-0.2-0.7-0.4-1.4-0.3-2.1
		c0-1.8,0-3.6,0-5.4c0-0.2,0-0.3,0-0.5c1.8,0,3.6,0,5.4,0c0,0.8,0,1.7,0,2.5c0,0.6,0,1.3,0,1.9c0,0.5,0.2,0.9,0.6,1.3
		c0.8,0,1.6,0,2.4,0c0.5-0.4,0.6-0.9,0.6-1.4c0-5.6,0-11.2,0-16.7c0-4.7,0-9.4,0-14C80.8,0.6,80.8,0.3,80.8,0z"/>
	<path d="M172,33c2.1,0,4,0,6,0c0.3,0.2,0.3,0.4,0.3,0.6c0,1.4,0,2.9,0,4.3c-3.9,0-7.7,0-11.6,0c0-12.6,0-25.2,0-37.9l0,0
		c0,0,0,0,0.1,0c1.7,0,3.5,0,5.3,0C172,11,172,22,172,33z"/>
	<path d="M50.2,8.6c-0.4,0-0.8,0-1.2,0c0-2.8,0-5.7,0-8.5c0.9,0,1.8,0,2.8,0c0,0.3,0.1,0.6-0.1,1c-0.2,0.4-0.1,0.8-0.2,1.3
		c-0.1,0.4-0.1,0.8-0.3,1.2c-0.1,0.3-0.1,0.7-0.2,1c-0.1,0.3,0,0.5-0.2,0.8c-0.1,0.2,0,0.5-0.1,0.7c-0.2,0.2,0.1,0.6-0.2,0.8
		c0.1,0.4-0.1,0.9-0.2,1.3C50.3,8.3,50.2,8.5,50.2,8.6z"/>
</g>
</svg>
