<svg aria-hidden="true" focusable="false" role="presentation" class="icon icon--wide icon-money" viewBox="0 0 56 35"
    xmlns="http://www.w3.org/2000/svg">
    <g fill="#FFF">
        <path
            d="M54.04 5.04h-2.625V2.415a.875.875 0 0 0-.875-.875H1.977a.875.875 0 0 0-.875.875v26.688c0 .483.392.874.875.874h2.625v2.625c0 .484.392.876.875.876H54.04a.876.876 0 0 0 .875-.876V5.915a.875.875 0 0 0-.875-.875zM5.46 28.21H2.853V3.29h46.812v24.938H5.46v-.018zm47.705 3.5H6.335v-1.75H50.54a.875.875 0 0 0 .875-.875V6.79h1.75v24.92z">
        </path>
        <path
            d="M46.375 11.393a4.586 4.586 0 0 1-4.585-4.586.875.875 0 0 0-.875-.875h-29.33a.875.875 0 0 0-.875.875 4.585 4.585 0 0 1-4.585 4.585.876.876 0 0 0-.875.858v7c0 .483.392.875.875.875a4.585 4.585 0 0 1 4.585 4.585c0 .483.392.875.875.875h29.33a.875.875 0 0 0 .875-.875 4.585 4.585 0 0 1 4.585-4.585.875.875 0 0 0 .875-.875v-7a.875.875 0 0 0-.875-.857zm-.875 7a6.333 6.333 0 0 0-5.39 5.39H12.39A6.335 6.335 0 0 0 7 18.427v-5.354a6.335 6.335 0 0 0 5.39-5.39h27.72a6.335 6.335 0 0 0 5.39 5.39v5.32z">
        </path>
        <path
            d="M26.933 14.945c-1.033-.385-1.47-.648-1.47-1.05s.262-.682 1.05-.682c.607.007 1.205.15 1.75.42l.35-1.383a4.398 4.398 0 0 0-1.75-.402v-1.086h-1.208v1.173a2.258 2.258 0 0 0-2.065 2.188c0 1.19.893 1.75 2.205 2.24.91.314 1.295.595 1.295 1.067 0 .473-.473.753-1.172.753a4.332 4.332 0 0 1-2.03-.543l-.368 1.435a4.915 4.915 0 0 0 2.082.525v1.172h1.208V19.53a2.345 2.345 0 0 0 2.188-2.275c-.018-1.12-.596-1.802-2.066-2.31z">
        </path>
    </g>
</svg>